<svg width="0" height="0" class="hidden">
  <symbol fill="current" xmlns="http://www.w3.org/2000/svg" viewBox="0 0 27 22" id="email">
    <path d="M4.375 0C3.21468 0 2.10188 0.460936 1.28141 1.28141C0.460936 2.10188 0 3.21468 0 4.375V4.81469L13.125 11.8825L26.25 4.81688V4.375C26.25 3.21468 25.7891 2.10188 24.9686 1.28141C24.1481 0.460936 23.0353 0 21.875 0H4.375ZM26.25 7.29969L13.6434 14.0875C13.4841 14.1733 13.306 14.2182 13.125 14.2182C12.944 14.2182 12.7659 14.1733 12.6066 14.0875L0 7.29969V17.5C0 18.6603 0.460936 19.7731 1.28141 20.5936C2.10188 21.4141 3.21468 21.875 4.375 21.875H21.875C23.0353 21.875 24.1481 21.4141 24.9686 20.5936C25.7891 19.7731 26.25 18.6603 26.25 17.5V7.29969Z"></path>
  </symbol>
  <symbol fill="current" xmlns="http://www.w3.org/2000/svg" viewBox="0 0 24 24" id="name">
    <path d="M12 0C13.5913 0 15.1174 0.632141 16.2426 1.75736C17.3679 2.88258 18 4.4087 18 6C18 7.5913 17.3679 9.11742 16.2426 10.2426C15.1174 11.3679 13.5913 12 12 12C10.4087 12 8.88258 11.3679 7.75736 10.2426C6.63214 9.11742 6 7.5913 6 6C6 4.4087 6.63214 2.88258 7.75736 1.75736C8.88258 0.632141 10.4087 0 12 0ZM12 15C18.63 15 24 17.685 24 21V24H0V21C0 17.685 5.37 15 12 15Z"></path>
  </symbol>
  <symbol fill="current" xmlns="http://www.w3.org/2000/svg" viewBox="0 0 36 36" id="password">
    <g clip-path="url(#clip0_14_187)">
      <path d="M27 12H25.5V9C25.5 4.86 22.14 1.5 18 1.5C13.86 1.5 10.5 4.86 10.5 9V12H9C7.35 12 6 13.35 6 15V30C6 31.65 7.35 33 9 33H27C28.65 33 30 31.65 30 30V15C30 13.35 28.65 12 27 12ZM18 25.5C16.35 25.5 15 24.15 15 22.5C15 20.85 16.35 19.5 18 19.5C19.65 19.5 21 20.85 21 22.5C21 24.15 19.65 25.5 18 25.5ZM22.65 12H13.35V9C13.35 6.435 15.435 4.35 18 4.35C20.565 4.35 22.65 6.435 22.65 9V12Z"></path>
    </g>
    <defs>
      <clipPath id="clip0_14_187">
        <rect width="36" height="36" fill="white"></rect>
      </clipPath>
    </defs>
  </symbol>
  <symbol fill="current" xmlns="http://www.w3.org/2000/svg" viewBox="0 0 22 16" id="dropdown">
    <path d="M2.585 0.5L11 9.77125L19.415 0.5L22 3.35425L11 15.5L0 3.35425L2.585 0.5Z"></path>
  </symbol>
  <symbol fill="none" xmlns="http://www.w3.org/2000/svg" viewBox="0 0 667 609" id="splash">
    <path id="splash" d="M655.751 275.344C713.144 328.691 534.793 387.942 458.293 414.442C404.183 464.349 443.293 665.942 360.793 591.942C173.793 352.942 140.27 578.211 92.2935 591.942C62.7341 600.402 8.54886 539.142 0.793579 461.942C-10.2064 352.442 96.7936 345.604 96.7936 260.442C96.7936 107.676 -88.7065 -33.558 113.294 99.942C206.294 121.442 182.207 50.8215 235.793 13.4421C360.793 -67.5579 331.294 251.942 493.294 61.4421C547.794 -21.5579 607.294 69.0461 555.794 112.942C332.294 303.442 613.794 236.345 655.751 275.344Z" fill="#E8EAEF"></path>
  </symbol>
</svg>